<?xml version="1.0" encoding="UTF-8"?>
<svg xmlns="http://www.w3.org/2000/svg" version="1.1" viewBox="0 0 512 512">
  <defs>
    <style>
      .cls-1 {
        font-family: KievitOT-Regular, 'Kievit OT';
        font-size: 11.8px;
        isolation: isolate;
      }

      .cls-1, .cls-2 {
        fill: #101416;
      }

      .cls-3 {
        fill: #fff;
      }

      .cls-4 {
        display: none;
      }

      .cls-5 {
        fill: #9edbf5;
      }
    </style>
  </defs>
  <!-- Generator: Adobe Illustrator 28.6.0, SVG Export Plug-In . SVG Version: 1.2.0 Build 709)  -->
  <g>
    <g id="Layer_1">
      <rect class="cls-3" x="0" y="0" width="512" height="512.1"/>
      <g id="Ebene_1">
        <path d="M222.2,342.8l48.3,48.3h115.4V122.1h-97.7v48.2l-48.2-48.2h-113.6v269h95.8v-48.3h0ZM277,386l69.3-75.4,33.2,75.4h-102.5ZM380.7,375.8l-30.7-69.7,30.7-156.7v226.5ZM379.8,127.4l-33.3,170.2-53-122v-48.2h86.3ZM290.8,182.6l53.2,122.7-72.8,79.3-48.1-48.1,67.7-153.9ZM234.4,127.4l-68.8,111.5-32.7-111.5h101.5ZM131.6,141.6l30.4,103.5-30.4,122.3v-225.8ZM217,386h-84.7l33.3-134.1,51.3,86.7v47.4h0ZM167.7,245.1l71.7-116.3,48.1,48.1-68.3,155.4-51.6-87.2Z"/>
      </g>
      <g id="Hilfskästchen" class="cls-4">
        <rect class="cls-5" x="385.8" y="15.1" width="125.7" height="39.6"/>
        <polygon class="cls-2" points="446.4 32.3 444.8 32.8 444.7 32.1 446.5 31.5 447.3 31.5 447.3 39.3 446.4 39.3 446.4 32.3"/>
        <text class="cls-1" transform="translate(449.2 39.3)"><tspan x="0" y="0"> </tspan></text>
        <text class="cls-1" transform="translate(449.9 39.3)"><tspan x="0" y="0">i</tspan></text>
        <rect class="cls-5" x="-586.3" y="16.7" width="125.7" height="39.6"/>
        <polygon class="cls-2" points="-525.7 34 -527.3 34.5 -527.5 33.7 -525.6 33.2 -524.9 33.2 -524.9 41 -525.7 41 -525.7 34"/>
        <text class="cls-1" transform="translate(-523.7 41)"><tspan x="0" y="0"> </tspan></text>
        <text class="cls-1" transform="translate(-522.2 41)"><tspan x="0" y="0">i</tspan></text>
        <rect class="cls-5" x="11.8" y="-230.2" width="39.6" height="125.7"/>
        <polygon class="cls-2" points="29 -165.1 29.5 -163.6 28.8 -163.4 28.2 -165.2 28.2 -166 36 -166 36 -165.1 29 -165.1"/>
        <text class="cls-1" transform="translate(36 -167.1) rotate(-90)"><tspan x="0" y="0"> </tspan></text>
        <text class="cls-1" transform="translate(36 -168.6) rotate(-90)"><tspan x="0" y="0">i</tspan></text>
        <rect class="cls-5" x="24.1" y="386.3" width="39.6" height="125.7"/>
        <polygon class="cls-2" points="41.3 451.4 41.8 452.9 41.1 453.1 40.5 451.2 40.5 450.5 48.3 450.5 48.3 451.4 41.3 451.4"/>
        <text class="cls-1" transform="translate(48.3 449.3) rotate(-90)"><tspan x="0" y="0"> </tspan></text>
        <text class="cls-1" transform="translate(48.3 447.8) rotate(-90)"><tspan x="0" y="0">i</tspan></text>
        <rect class="cls-5" x="-287.1" y="206.8" width="57" height="41.9"/>
        <path class="cls-2" d="M-265.9,225.2l-1.5.5-.2-.7,1.9-.6h.7v7.8h-.9v-7ZM-260.2,223.7h.8l-3.7,10.4h-.8l3.7-10.4ZM-258.7,232.2v-.8c.2,0,.6.1,1.1.1,1.4,0,2.2-.6,2.2-1.7s-1.1-1.6-2.5-1.6v-.6c1.2,0,2.3-.6,2.3-1.6s-.5-1-1.3-1-1.2.2-1.6.6l-.4-.6c.4-.4,1.1-.8,2.1-.8s2.1.8,2.1,1.8-.8,1.6-1.7,1.9h0c1,.1,2,.9,2,2,0,1.6-1.3,2.5-3.1,2.5-.6,0-1,0-1.2-.2Z"/>
        <text class="cls-1" transform="translate(-253.7 232.2)"><tspan x="0" y="0"> </tspan></text>
        <text class="cls-1" transform="translate(-252.2 232.2)"><tspan x="0" y="0">i</tspan></text>
      </g>
    </g>
  </g>
</svg>